<svg id="Layer_1" data-name="Layer 1" xmlns="http://www.w3.org/2000/svg" xmlns:xlink="http://www.w3.org/1999/xlink" viewBox="0 0 630.72 469"><defs><style>.cls-1{fill:none;}.cls-2{clip-path:url(#clip-path);}.cls-3{fill:#76b82a;}.cls-4{fill:#00a23a;}.cls-5{fill:#34b3c5;}.cls-6{fill:#009a3c;}.cls-7{font-size:91.23px;fill:#fff;font-family:Montserrat-Bold, Montserrat;font-weight:700;}</style><clipPath id="clip-path"><rect id="SVGID" class="cls-1" width="630.72" height="469"/></clipPath></defs><title>Brand-Meadow-Logo-q</title><g class="cls-2"><path class="cls-3" d="M225.6,338.81A43,43,0,0,1,190.73,321L8.42,69.81a44.21,44.21,0,0,1,9.2-61.28,42.88,42.88,0,0,1,60.47,9.33L260.4,269a44.22,44.22,0,0,1-9.21,61.28,42.63,42.63,0,0,1-25.59,8.53"/><path class="cls-3" d="M414.34,0c-1.25,0-2.5.06-3.74.17,1.23-.11,2.46-.16,3.72-.16a42.73,42.73,0,0,1,16.33,3.23A42.67,42.67,0,0,0,414.34,0M396.22,4a43,43,0,0,0-14.69,11.24A43.43,43.43,0,0,1,396.22,4M442,10.19A44,44,0,0,1,453.1,24.41,43.71,43.71,0,0,0,442,10.19m-62.48,7.55L226.16,221.85,260.39,269a44.33,44.33,0,0,1,.24,51.66L371.07,173.72V43.84a44,44,0,0,1,8.49-26.1m77.95,24c0,.72.05,1.43.05,2.15v.48c0-.88,0-1.75-.05-2.63M190.1,320.09a43.6,43.6,0,0,0,5.07,6.08,44.24,44.24,0,0,1-4.44-5.22Zm65.39,6.54a42.1,42.1,0,0,1-4.29,3.65,43,43,0,0,1-7.8,4.64,42.85,42.85,0,0,0,12.09-8.29m-49.44,7.48a42.63,42.63,0,0,0,19.48,4.7h0a42.94,42.94,0,0,1-19.52-4.7"/><path class="cls-4" d="M226.16,221.84l-35,46.58a44.33,44.33,0,0,0-1.06,51.68l.62.86a47,47,0,0,0,4.45,5.22,44.77,44.77,0,0,0,4.18,3.67,42.83,42.83,0,0,0,44.05,5.07,44.12,44.12,0,0,0,7.8-4.63,44.69,44.69,0,0,0,4.29-3.66,44,44,0,0,0,4.48-5.09l.66-.88A44.33,44.33,0,0,0,260.4,269Z"/><path class="cls-5" d="M410.6.17A42.64,42.64,0,0,0,396.22,4,42.92,42.92,0,0,1,410.6.17m20,3.07A43,43,0,0,1,440.52,9c.51.4,1,.8,1.51,1.22a43.12,43.12,0,0,0-11.38-6.95m-49.11,12c-.69.81-1.35,1.65-2,2.5l.35-.46c.52-.7,1.06-1.38,1.63-2m71.55,9.18a44.31,44.31,0,0,1,4.42,17.28,44,44,0,0,0-4.42-17.28m4.47,19.9a44,44,0,0,1-8.84,26.07L371.06,173.72V425.17c0,24.2,19.37,43.83,43.25,43.83s43.25-19.63,43.25-43.83Z"/><path class="cls-6" d="M414.31,0c-1.25,0-2.49.05-3.71.16a43,43,0,0,0-29.07,15.08c-.56.66-1.09,1.34-1.62,2l-.35.46a44,44,0,0,0-8.5,26.09V173.71L448.72,70.4a44.07,44.07,0,0,0,8.84-26.08v-.49c0-.71,0-1.43-.05-2.14a44.58,44.58,0,0,0-4.42-17.28A43.91,43.91,0,0,0,442,10.19c-.49-.42-1-.82-1.51-1.23a43.51,43.51,0,0,0-9.87-5.72A42.56,42.56,0,0,0,414.31,0"/><path class="cls-3" d="M43.25,469C19.37,469,0,449.38,0,425.17V43.84C0,19.63,19.37,0,43.25,0S86.5,19.63,86.5,43.84V425.17C86.5,449.38,67.13,469,43.25,469"/><text class="cls-7" transform="translate(554.98 467.5) rotate(-90) scale(1.01 1)">BRAND</text><text class="cls-7" transform="translate(630.07 467.48) rotate(-90) scale(1.01 1)">MEADO</text><text class="cls-7" transform="translate(630.07 103.28) rotate(-90) scale(1.01 1)">W</text></g><rect id="SVGID-2" data-name="SVGID" class="cls-1" x="46.38" y="32.1" width="543.32" height="404"/></svg>