<svg xmlns="http://www.w3.org/2000/svg" xmlns:xlink="http://www.w3.org/1999/xlink" viewBox="0 0 566.12 404.22"><defs><style>.cls-1{fill:none;}.cls-2{clip-path:url(#clip-path);}.cls-3{fill:#76b72e;}.cls-4{fill:#0fa23a;}.cls-5{fill:#34b3c5;}.cls-6{fill:#029a3b;}.cls-7{isolation:isolate;font-size:78.61px;fill:#2a333b;font-family:Montserrat-Bold, Montserrat;font-weight:700;}.cls-8{letter-spacing:-0.01rem;}</style><clipPath id="clip-path"><rect id="SVGID" class="cls-1" x="0.18" y="0.15" width="543.32" height="404"/></clipPath></defs><title>Asset 20</title><g id="Layer_2" data-name="Layer 2"><g id="Layer_1-2" data-name="Layer 1"><g id="Layer_2-2" data-name="Layer 2"><g id="Layer_1-2-2" data-name="Layer 1-2"><g class="cls-2"><path class="cls-3" d="M194.52,292.33a37.06,37.06,0,0,1-30.07-15.39L7.31,60.29a38.13,38.13,0,0,1,8.05-53A36.92,36.92,0,0,1,67,14.92l.45.62L224.24,231.9a38.13,38.13,0,0,1-7.91,52.81,36.77,36.77,0,0,1-22,7.13"/><path class="cls-3" d="M357.14.15h0A36.77,36.77,0,0,1,371.4,2.93,36.7,36.7,0,0,0,357.14.15M341.54,3.64a37.06,37.06,0,0,0-12.69,9.69,37.41,37.41,0,0,1,12.69-9.69M381,9a37.84,37.84,0,0,1,9.48,12.54,37.56,37.56,0,0,0-9.55-12.26m-53.8,6.49L195,191.28l29.5,40.62a38.2,38.2,0,0,1,0,44.47L319.8,149.8V37.92a37.84,37.84,0,0,1,7.13-22.45m67.35,20.31v0M164.09,275.87a37.48,37.48,0,0,0,4.35,5.2,37.77,37.77,0,0,1-3.85-4.49Zm56.3,5.63a36.77,36.77,0,0,1-3.71,3.14,37.2,37.2,0,0,1-6.7,4,37,37,0,0,0,10.4-7.13m-42.76,6.41A36.7,36.7,0,0,0,194.38,292h0a37.06,37.06,0,0,1-16.82-4.06"/><path class="cls-4" d="M195,191.28,164.87,231.4a38.2,38.2,0,0,0-.78,44.47l.57.71a39.13,39.13,0,0,0,3.85,4.49,38.48,38.48,0,0,0,3.56,3.14,37.41,37.41,0,0,0,5.77,3.63,36.92,36.92,0,0,0,32.21.71,37.63,37.63,0,0,0,6.7-4,38.63,38.63,0,0,0,3.71-3.14,37.48,37.48,0,0,0,3.85-4.42l.57-.78a38.2,38.2,0,0,0,0-44.47Z"/><path class="cls-5" d="M353.87.15a36.63,36.63,0,0,0-12.33,3.49A36.84,36.84,0,0,1,353.87.15m17.25,2.64a37.13,37.13,0,0,1,8.48,4.92l1.28,1.07a37,37,0,0,0-9.69-5.84M328.85,13.26l-1.71,2.14V15l1.43-1.78m61.93,8.34a38.2,38.2,0,0,1,3.78,14.25,38,38,0,0,0-3.78-14.25m3.85,17.17a37.91,37.91,0,0,1-7.63,22.45L319.8,149.8V366.38a37.27,37.27,0,0,0,74.54,0V38.7Z"/><path class="cls-6" d="M357.07.15h-3.21a37,37,0,0,0-25,13l-1.43,1.78v.43a37.91,37.91,0,0,0-7.13,22.45v112l66.42-89a37.91,37.91,0,0,0,7.63-22.45V36.06a38.34,38.34,0,0,0-3.85-14.54,37.91,37.91,0,0,0-9.55-12.26L379.66,8.2a37.56,37.56,0,0,0-8.48-5.27A36.7,36.7,0,0,0,356.93.15"/><path class="cls-3" d="M37.45,404.15A37.49,37.49,0,0,1,.18,366.45h0V37.92A37.49,37.49,0,0,1,37.38.15h.07a37.49,37.49,0,0,1,37.27,37.7v328.6a37.49,37.49,0,0,1-37.2,37.77h-.07"/><text class="cls-7" transform="translate(478.29 402.86) rotate(-90) scale(1.01 1)">BRAND</text><text class="cls-7" transform="translate(542.93 402.86) rotate(-90) scale(1.01 1)">MEA<tspan class="cls-8" x="185.03" y="0">D</tspan><tspan x="244.3" y="0">O</tspan></text><text class="cls-7" transform="translate(542.93 89.09) rotate(-90) scale(1.01 1)">W</text></g></g></g></g></g></svg>