<?xml version="1.0" encoding="utf-8"?>
<!-- Generator: Adobe Illustrator 21.0.2, SVG Export Plug-In . SVG Version: 6.00 Build 0)  -->
<svg version="1.1" id="Layer_1" xmlns="http://www.w3.org/2000/svg" xmlns:xlink="http://www.w3.org/1999/xlink" x="0px" y="0px"
	 viewBox="0 0 100 51" style="enable-background:new 0 0 100 51;" xml:space="preserve">
<style type="text/css">
	.st0{fill:#D0DAEF;}
	.st1{fill:#FFFFFF;}
	.st2{fill:#717F9F;}
</style>
<g>
	<path class="st0" d="M14.4,9.8c0.5-0.1,1,0,1.3,0.4c0.3,0.4,0.4,0.8,0.2,1.4l-1,4.2c-0.2,0.8-0.6,1.3-1.2,1.7
		c-0.6,0.4-1.3,0.6-2,0.7c0.7-0.1,1.3,0.1,1.7,0.5c0.4,0.4,0.5,1,0.4,1.7c-0.1,0.4-0.2,0.8-0.3,1.1c-0.1,0.3-0.1,0.5-0.2,0.8
		c-0.1,0.2-0.1,0.5-0.2,0.8c-0.1,0.3-0.1,0.6-0.2,1c-0.1,0.4-0.2,0.7-0.3,1c-0.1,0.3-0.2,0.5-0.4,0.7c-0.2,0.2-0.4,0.4-0.7,0.5
		c-0.3,0.1-0.6,0.2-1,0.3l-5.1,0.9c-0.5,0.1-1,0-1.3-0.4c-0.3-0.4-0.4-0.8-0.2-1.4l1.2-5.2l-1.1-1.8l1.6-0.3l1.2-5.2l-1.1-1.8
		L14.4,9.8z M10.2,19.5l-1,0.2l-1.2,5.2l1-0.2L10.2,19.5z M9.7,17.6l1-0.2l1.2-5.2l-1,0.2L9.7,17.6z"/>
	<path class="st0" d="M15.7,24.9c-0.3-0.4-0.4-0.8-0.2-1.4l1.2-5.1l-1.1-1.8l6.2-1.1l1.1,1.9l-2.2,0.4l-1.2,5.1l1.1,1.8l-3.6,0.6
		C16.4,25.4,16,25.3,15.7,24.9z"/>
	<path class="st0" d="M24.7,24c-0.5,0.1-1,0-1.3-0.4c-0.3-0.4-0.4-0.8-0.2-1.4l1.2-5.1l-1.1-1.8l3.6-0.6c0.5-0.1,1,0,1.3,0.4
		c0.3,0.4,0.4,0.8,0.2,1.4l-1.2,5.1l1.1,1.8L24.7,24z M26.6,14.2c-0.5,0.1-1,0-1.3-0.4C25,13.5,25,13,25.1,12.4l0.4-1.6l2.1-0.4
		c0.5-0.1,1,0,1.3,0.4c0.3,0.4,0.4,0.8,0.2,1.4l-0.4,1.7L26.6,14.2z"/>
	<path class="st0" d="M38.3,12.7c0.5-0.1,1,0,1.3,0.4c0.3,0.4,0.4,0.8,0.2,1.4c-0.4,1.6-0.7,3.2-1.1,4.7c-0.4,1.5-0.7,3.1-1.1,4.7
		c-0.1,0.4-0.2,0.8-0.3,1.1c-0.1,0.3-0.3,0.5-0.4,0.7c-0.2,0.2-0.4,0.3-0.7,0.4c-0.3,0.1-0.6,0.2-1,0.3L30,27.2
		c-0.5,0.1-1,0-1.3-0.4c-0.3-0.4-0.4-0.8-0.2-1.4l0.3-1.2l4-0.7l-0.3,1.3l1-0.2l0.5-2.2l-3,0.5c-0.5,0.1-1,0-1.3-0.4
		c-0.3-0.4-0.4-0.8-0.2-1.4l1.2-5.1l-1.1-1.8L38.3,12.7z M34.5,20.3l1.2-5.2l-1,0.2l-1.3,5.2L34.5,20.3z"/>
	<path class="st0" d="M42.3,12l0.5-2.2L41.7,8l3.7-0.6c0.5-0.1,1,0,1.3,0.4c0.3,0.4,0.4,0.8,0.2,1.4l-0.5,2.1l3-0.5
		c0.5-0.1,1,0,1.3,0.4c0.3,0.4,0.4,0.8,0.2,1.4l-1.2,5.1l1.1,1.8l-3.3,0.6c-0.4,0.1-0.7,0-0.9-0.1c-0.2-0.1-0.4-0.2-0.6-0.4
		c-0.1-0.2-0.2-0.4-0.3-0.6c0-0.2,0-0.4,0-0.6l1.2-5.2l-1,0.2l-1.7,7.3l-2,0.4c-0.6,0.1-1,0-1.3-0.4c-0.3-0.4-0.4-0.8-0.2-1.4
		l1.2-5.1l-1.1-1.8L42.3,12z"/>
	<path class="st0" d="M52,18.6c-0.3-0.4-0.4-0.8-0.2-1.4l1.2-5.1l-1.2-1.8l1.7-0.3L54,7.8L52.9,6l3.7-0.6c0.5-0.1,1,0,1.2,0.4
		c0.3,0.4,0.4,0.8,0.2,1.4l-0.5,2.1l0.9-0.2l1.1,1.8L57,11.4l-1.2,5.2l1.1,1.8L53.3,19C52.8,19.1,52.3,19,52,18.6z"/>
	<path class="st0" d="M68.4,7.4c0.5-0.1,1,0,1.3,0.4c0.3,0.4,0.4,0.8,0.2,1.4l-1.2,5.1c-0.1,0.4-0.2,0.8-0.3,1.1
		c-0.1,0.3-0.3,0.5-0.4,0.7c-0.2,0.2-0.4,0.3-0.7,0.4c-0.3,0.1-0.6,0.2-1,0.3l-5.1,0.9c-0.6,0.1-1,0-1.3-0.4
		c-0.3-0.4-0.4-0.8-0.2-1.4l1.2-5.1l-1.1-1.8L68.4,7.4z M64.6,15.1l1.2-5.2l-1,0.2l-1.3,5.2L64.6,15.1z"/>
	<path class="st0" d="M79.7,5.5c0.5-0.1,1,0,1.3,0.4c0.3,0.4,0.4,0.8,0.2,1.4l-1.2,5.1l1.1,1.8l-3.4,0.6c-0.4,0.1-0.7,0.1-0.9,0
		c-0.2-0.1-0.4-0.2-0.6-0.4c-0.1-0.2-0.2-0.4-0.3-0.6c0-0.2,0-0.4,0-0.6l1.2-5.2l-1,0.1l-1.7,7.3l-2,0.4c-0.3,0-0.5,0-0.7,0
		c-0.2-0.1-0.4-0.2-0.5-0.3c-0.1-0.2-0.2-0.4-0.3-0.6c0-0.2,0-0.5,0.1-0.8l1.2-5.1L71,7L79.7,5.5z"/>
</g>
<g>
	<path class="st1" d="M11,44.5c-0.5,0.1-0.9,0-1.2-0.4c-0.3-0.3-0.3-0.8-0.2-1.4l2.9-12.2l-1.1-1.8l3.3-0.6c0.4-0.1,0.7,0,0.9,0.1
		c0.2,0.1,0.4,0.2,0.6,0.4c0.1,0.2,0.2,0.4,0.2,0.6c0,0.2,0,0.4,0,0.6l-2.9,12.3l0.9-0.2l0-0.1l3.3-14.3l1.8-0.3
		c0.4-0.1,0.7,0,0.9,0c0.2,0.1,0.4,0.2,0.6,0.4c0.1,0.2,0.2,0.4,0.2,0.6c0,0.2,0,0.4,0,0.6l-2.9,12.3l1-0.1l3.4-14.4l2-0.3
		c0.5-0.1,0.9,0,1.2,0.4c0.3,0.3,0.4,0.8,0.2,1.4l-2.9,12.2l1.1,1.8L11,44.5z"/>
	<path class="st1" d="M27.3,41.7c-0.5,0.1-1,0-1.2-0.4c-0.3-0.4-0.4-0.8-0.2-1.4l1.2-5l-1.1-1.8l3.6-0.6c0.5-0.1,1,0,1.2,0.4
		c0.3,0.3,0.4,0.8,0.2,1.4l-1.2,5l1.1,1.8L27.3,41.7z M29.2,32.1c-0.5,0.1-1,0-1.2-0.4c-0.3-0.4-0.4-0.8-0.2-1.4l0.4-1.6l2-0.4
		c0.5-0.1,1,0,1.2,0.4c0.3,0.3,0.4,0.8,0.2,1.4l-0.4,1.6L29.2,32.1z"/>
	<path class="st1" d="M40.5,30.6c0.5-0.1,1,0,1.2,0.4c0.3,0.3,0.4,0.8,0.2,1.4l-1.2,5l1.1,1.8l-3.3,0.6c-0.4,0.1-0.7,0-0.9,0
		c-0.2-0.1-0.4-0.2-0.6-0.4c-0.1-0.2-0.2-0.4-0.2-0.6c0-0.2,0-0.4,0-0.6L38,33l-1,0.1l-1.7,7.1l-2,0.3c-0.3,0-0.5,0-0.7,0
		c-0.2-0.1-0.4-0.2-0.5-0.3c-0.1-0.2-0.2-0.4-0.3-0.6c0-0.2,0-0.5,0.1-0.8l1.2-5l-1.1-1.8L40.5,30.6z"/>
	<path class="st1" d="M51.8,28.7c0.5-0.1,0.9,0,1.2,0.4c0.3,0.3,0.4,0.8,0.2,1.4c-0.4,1.6-0.7,3.1-1.1,4.6c-0.4,1.5-0.7,3-1.1,4.6
		c-0.1,0.4-0.2,0.8-0.3,1.1c-0.1,0.3-0.3,0.5-0.4,0.7c-0.2,0.2-0.4,0.3-0.6,0.4c-0.3,0.1-0.6,0.2-1,0.3l-5,0.9
		c-0.5,0.1-0.9,0-1.2-0.4c-0.3-0.3-0.4-0.8-0.2-1.4l0.3-1.2l3.9-0.7l-0.3,1.2l1-0.2l0.5-2.2l-3,0.5c-0.5,0.1-1,0-1.2-0.4
		c-0.3-0.3-0.4-0.8-0.2-1.4l1.2-5l-1.1-1.8L51.8,28.7z M48.1,36.2l1.2-5.1l-1,0.2l-1.2,5.1L48.1,36.2z"/>
	<path class="st1" d="M69.9,18.6c0.5-0.1,0.9,0,1.2,0.4c0.3,0.3,0.4,0.8,0.2,1.4l-0.6,2.4l-3.9,0.7l0.6-2.4l-0.9,0.2l-2.9,12.2
		l1-0.2l0.6-2.4l3.9-0.7c0,0.2-0.1,0.4-0.1,0.5c0,0.2-0.1,0.3-0.1,0.5c0,0.2-0.1,0.4-0.1,0.6s-0.1,0.5-0.2,0.8
		c-0.2,0.7-0.5,1.2-0.8,1.6c-0.3,0.4-0.8,0.6-1.6,0.8l-5,0.9c-0.5,0.1-0.9,0-1.2-0.4c-0.3-0.3-0.4-0.8-0.2-1.4l2.9-12.2l-1.1-1.8
		L69.9,18.6z"/>
	<path class="st1" d="M70.6,33.6c-0.3-0.4-0.4-0.8-0.2-1.4L73.2,20l-1.1-1.8l3.6-0.6c0.5-0.1,1,0,1.2,0.4c0.3,0.3,0.4,0.8,0.2,1.4
		l-2.9,12.2l1.1,1.8L71.8,34C71.2,34,70.8,33.9,70.6,33.6z"/>
	<path class="st1" d="M78,32.9c-0.5,0.1-1,0-1.2-0.4c-0.3-0.3-0.4-0.8-0.2-1.4l1.2-5l-1.1-1.8l3.3-0.6c0.4-0.1,0.7,0,0.9,0
		c0.2,0.1,0.4,0.2,0.5,0.4c0.1,0.2,0.2,0.4,0.2,0.6c0,0.2,0,0.4,0,0.6l-1.2,5.1l1-0.1l1.7-7.1l2-0.3c0.5-0.1,0.9,0,1.2,0.4
		c0.3,0.3,0.4,0.8,0.2,1.4l-1.2,5l1.1,1.8L78,32.9z"/>
	<path class="st1" d="M89.3,22.2l0.5-2.2l-1.1-1.8l3.6-0.6c0.5-0.1,1,0,1.2,0.4c0.3,0.3,0.4,0.8,0.2,1.4l-0.5,2.1l3-0.5
		c0.5-0.1,1,0,1.2,0.4c0.3,0.3,0.4,0.8,0.2,1.4l-1.2,5c-0.1,0.4-0.2,0.8-0.3,1.1c-0.1,0.3-0.2,0.5-0.4,0.7c-0.2,0.2-0.4,0.3-0.7,0.4
		c-0.3,0.1-0.6,0.2-1,0.3L89,31c-0.5,0.1-0.9,0-1.2-0.4c-0.3-0.3-0.4-0.8-0.2-1.4l1.2-5l-1.1-1.8L89.3,22.2z M92.5,28.5l1.2-5.1
		l-1,0.2l-1.2,5.1L92.5,28.5z"/>
</g>
<rect x="11.6" y="44.3" transform="matrix(0.9824 -0.1865 0.1865 0.9824 -7.9185 5.5664)" class="st2" width="28.1" height="1"/>
<rect x="39.8" y="22" transform="matrix(0.9824 -0.1865 0.1865 0.9824 -3.3591 9.4467)" class="st2" width="17.5" height="1"/>
<rect x="60.2" y="35.1" transform="matrix(0.9824 -0.1868 0.1868 0.9824 -5.2784 15.194)" class="st2" width="35.5" height="1"/>
</svg>
