<svg xmlns="http://www.w3.org/2000/svg" viewBox="0 0 42 42"><defs><style>.cls-1{fill:#bb2c78;}</style></defs><title>Asset 10</title><g id="Layer_2" data-name="Layer 2"><g id="Layer_1-2" data-name="Layer 1"><path class="cls-1" d="M21,0A21,21,0,1,0,42,21,21,21,0,0,0,21,0Zm9.24,28.77a1.19,1.19,0,0,1,0,1.68h0a1.15,1.15,0,0,1-.84.35,1.2,1.2,0,0,1-.84-.35L21,22.89l-7.57,7.57a1.16,1.16,0,0,1-.84.35,1.2,1.2,0,0,1-.84-2l7.57-7.57-7.57-7.57A1.2,1.2,0,0,1,13.44,12L21,19.51l7.57-7.57a1.2,1.2,0,0,1,1.69,1.69L22.69,21.2Z"/></g></g></svg>