<svg xmlns="http://www.w3.org/2000/svg" viewBox="0 0 57 57"><defs><style>.cls-1{fill:#fff;}</style></defs><title>Asset 10</title><g id="Layer_2" data-name="Layer 2"><g id="Layer_1-2" data-name="Layer 1"><path class="cls-1" d="M28.5,0A28.5,28.5,0,1,0,57,28.5,28.5,28.5,0,0,0,28.5,0ZM43.75,14.77,24.67,46.51a2.67,2.67,0,0,1-3.65.91L20.3,47a2.65,2.65,0,0,1-.43-.32,2.69,2.69,0,0,1-.83-.77L11.68,35.33a2.73,2.73,0,1,1,4.48-3.12l5.33,7.65,17-28.27a2.67,2.67,0,0,1,3.65-.91l.71.43A2.67,2.67,0,0,1,43.75,14.77Z"/></g></g></svg>