<svg id="Layer_1" data-name="Layer 1" xmlns="http://www.w3.org/2000/svg" viewBox="0 0 259 214.8"><defs><style>.cls-1,.cls-3{fill:#202e38;}.cls-2{fill:none;}.cls-3{isolation:isolate;font-size:64px;font-family:MyriadPro-Regular, Myriad Pro;}</style></defs><title>CodeBlue</title><path class="cls-1" d="M254,0H5A5,5,0,0,0,0,5V174.1a5,5,0,0,0,5,5H97.6l-7.2,25.7H75.1a5,5,0,0,0,0,10H183.8a5,5,0,0,0,0-10H168.6l-7.2-25.7H254a5,5,0,0,0,5-5V5A5,5,0,0,0,254,0ZM158.3,204.8H100.8l7.2-25.7h43.1ZM249,169.1H10V10H249Z" transform="translate(0 0)"/><path class="cls-1" d="M254,155.7H8.9a5,5,0,1,1,0-10H254a5,5,0,0,1,0,10Z" transform="translate(0 0)"/><rect class="cls-2" x="47" y="52" width="165" height="56"/><text class="cls-3" transform="translate(80.4 97.4)">&lt;/&gt;</text></svg>