<svg id="Layer_1" data-name="Layer 1" xmlns="http://www.w3.org/2000/svg" viewBox="0 0 108.5 216.8"><defs><style>.cls-1,.cls-3{fill:#202e38;}.cls-2{fill:none;}.cls-2,.cls-3{stroke:#202e38;stroke-miterlimit:10;stroke-width:10px;}</style></defs><title>Innovation.Blue</title><polygon class="cls-1" points="55.7 0 52.2 6.3 44.9 7 49.9 12.4 48.3 19.4 54.9 16.4 61.1 20.1 60.3 12.9 65.7 8.1 58.6 6.7 55.7 0"/><polygon class="cls-1" points="15.4 19.5 12.2 21 13 17.5 10.6 14.9 14.1 14.6 15.8 11.5 17.2 14.8 20.7 15.5 18 17.8 18.5 21.3 15.4 19.5"/><polygon class="cls-1" points="16.4 0.2 11 9.9 0 10.9 7.5 19 5.1 29.8 15.1 25.2 24.6 30.8 23.3 19.8 31.6 12.5 20.8 10.4 16.4 0.2"/><polygon class="cls-1" points="92.3 40.9 89 42.4 89.8 38.9 87.4 36.3 90.9 36 92.7 32.9 94.1 36.1 97.6 36.8 94.9 39.2 95.3 42.7 92.3 40.9"/><polygon class="cls-1" points="93.3 21.6 87.9 31.2 76.9 32.3 84.4 40.4 81.9 51.2 92 46.5 101.5 52.2 100.2 41.2 108.5 33.9 97.6 31.7 93.3 21.6"/><rect class="cls-2" x="38.8" y="95.4" width="28.2" height="116.4"/><rect class="cls-3" x="38.8" y="35.6" width="28.2" height="59.2"/></svg>