<svg id="Layer_1" data-name="Layer 1" xmlns="http://www.w3.org/2000/svg" viewBox="0 0 143.2 171.9"><defs><style>.cls-1,.cls-2{fill:#202e38;}.cls-2{stroke:#202e38;stroke-miterlimit:10;}</style></defs><title>InventorLabBlue</title><path class="cls-1" d="M93.1,57.3V7.2h7.2V0H43V7.2h7.2V57.3S0,128.9,0,150.4s21.5,21.5,21.5,21.5H121.7s21.5,0,21.5-21.5S93.1,57.3,93.1,57.3Zm28.6,107.4H21.5c-2.4,0-14.3-.7-14.3-14.3s30-62,48.8-89l1.3-1.8V7.2H85.9V59.6l1.3,1.8c18.9,27,48.8,75,48.8,89S125,164.6,121.7,164.7Zm-71.6-27a7.2,7.2,0,1,1-7.1-7.2h0a7.1,7.1,0,0,1,7.1,7.2Zm42.8,10a9.7,9.7,0,1,1-9.7-9.6h0a9.5,9.5,0,0,1,9.7,9.6ZM75.8,134.9a9,9,0,1,1-9-9A9,9,0,0,1,75.8,134.9ZM65.1,123.3A13.3,13.3,0,1,1,78.4,110h0a13.3,13.3,0,0,1-13.3,13.3Zm20.1-12.4a7.2,7.2,0,1,1,7.2,7.2,7.2,7.2,0,0,1-7.2-7.2ZM93,128a4.7,4.7,0,1,1-4.7-4.7A4.7,4.7,0,0,1,93,128Z" transform="translate(0 0)"/><ellipse class="cls-2" cx="88.3" cy="128.5" rx="7.1" ry="7.5"/><circle class="cls-2" cx="65" cy="109.8" r="13.2"/><ellipse class="cls-2" cx="67.2" cy="135.5" rx="10" ry="10.5"/><ellipse class="cls-1" cx="83.4" cy="146.8" rx="10.7" ry="11.2"/><ellipse class="cls-1" cx="92.8" cy="110" rx="8.6" ry="9"/><ellipse class="cls-1" cx="42.8" cy="138" rx="7.6" ry="8"/></svg>