<?xml version="1.0" encoding="utf-8"?>
<!-- Generator: Adobe Illustrator 21.1.0, SVG Export Plug-In . SVG Version: 6.00 Build 0)  -->
<svg version="1.1" id="Capa_1" xmlns="http://www.w3.org/2000/svg" xmlns:xlink="http://www.w3.org/1999/xlink" x="0px" y="0px"
	 viewBox="0 0 555.6 555.6" style="enable-background:new 0 0 555.6 555.6;" xml:space="preserve">
<style type="text/css">
	.st0{fill:#202E38;}
</style>
<g>
	<g>
		<path class="st0" d="M543.3,85.5h-61c-6.8,0-12.2-5.5-12.2-12.2v-61c0-6.8-5.5-12.2-12.2-12.2h-18.3c-6.8,0-12.2,5.5-12.2,12.2v61
			c0,6.8-5.5,12.2-12.2,12.2h-61c-6.8,0-12.2,5.5-12.2,12.2V116c0,6.8,5.5,12.2,12.2,12.2h61c6.8,0,12.2,5.5,12.2,12.2v61
			c0,6.8,5.5,12.2,12.2,12.2h18.3c6.8,0,12.2-5.5,12.2-12.2v-61c0-6.8,5.5-12.2,12.2-12.2h61c6.8,0,12.2-5.5,12.2-12.2V97.7
			C555.6,90.9,550.1,85.5,543.3,85.5z"/>
		<path class="st0" d="M35.7,521.7c10.5,7.7,22.5,14.1,36.2,19.4c13.7,5.2,27.3,9,40.7,11.2c13.5,2.2,26.8,3.3,39.9,3.3
			c59.6,0,106.4-14.6,140.2-43.7c31.2-27.2,46.7-58.5,46.7-94.1c0-12.7-1.8-24.5-5.5-35.6c-3.7-11-8.5-20.5-14.4-28.4
			c-5.9-7.9-12.4-15.2-19.5-22c-7.1-6.8-14.2-13-21.4-18.5c-7.1-5.6-13.6-10.9-19.5-16c-5.9-5.1-10.7-10.5-14.4-16
			c-3.7-5.6-5.5-11.2-5.5-17c0-8,2.6-15.5,7.7-22.5c5.1-7,11.4-13.8,18.7-20.4c7.3-6.6,14.7-13.7,22-21.5
			c7.3-7.8,13.6-18.1,18.7-30.9c5.1-12.8,7.7-27.4,7.7-43.9c0-19.6-4.3-38.4-13-56.4c-6.8-14.1-15.7-25.7-26.8-34.9
			c-5.2-4.3-4.4-7.2,2.3-7.2h20.6c6.8,0,17-2.8,22.8-6.2l23.9-14c5.8-3.4,5.1-6.2-1.7-6.2H208.7c-20.7,0-41.5,2.2-62.4,6.7
			c-30.9,6.9-57,22.7-78.1,47.2C47,78.5,36.4,106.4,36.4,137.6c0,32.9,11.9,60.3,35.6,82.1c23.7,21.8,52.1,32.7,85.3,32.7
			c3.6,0,7.5-0.2,11.7-0.5c6.5-0.5,11.2,0.4,10.6,2.4c-0.4,1.1-0.8,2.3-1.3,3.6c-1.1,3-2,5.4-2.7,7.2s-1.2,4-1.7,6.5
			c-0.5,2.6-0.7,5.2-0.7,7.8c0,12,4.7,25.3,14.3,39.8c3.7,5.7,1.6,10.1-5.1,10.5c-12.7,0.7-25.4,2.1-37.9,4
			c-16.5,2.6-33.7,6.6-51.8,12c-18,5.5-34.2,13.4-48.4,23.7c-14.2,10.3-24.9,22.6-32.1,36.9C4.1,422.8,0,437.8,0,451.4
			c0,14.9,3.3,28.4,10,40.6C16.7,504.1,25.3,514,35.7,521.7z M158.6,223.7c-10.2-5.8-18.9-13.3-26-22.5
			c-7.1-9.2-13.4-19.6-18.7-31.2c-5.3-11.6-9.3-23.2-11.9-34.7c-2.6-11.6-3.8-22.6-3.8-33.1c0-21.4,5.7-39.7,17-55.1
			c11.4-15.4,27.4-23,48.1-23c14.7,0,28,4.6,39.9,13.7c11.9,9.1,21.2,20.7,28,34.7c6.8,14,12,28.6,15.7,43.6
			c3.7,15,5.5,29.2,5.5,42.6c0,16.9-2.8,31.2-8.3,43c-2.9,6.1-9.3,15.2-14.6,19.4c-9.5,7.6-22.3,11.3-38.5,11.3
			C179.6,232.4,168.8,229.5,158.6,223.7z M70.8,400.3c6-10.5,13.7-18.8,23-25c9.3-6.2,20.3-11.4,32.7-15.4c12.5-4,24.5-6.8,36.1-8.3
			c11.6-1.6,23.4-2.3,35.4-2.3c3.1,0,5.9,0,8.4,0.1c4.6,0.2,10.6,2.1,13.4,4c1.4,1,3.1,2.2,5.1,3.5c5.5,3.8,9.1,6.3,11,7.7
			c1.9,1.3,5.3,3.9,10.3,7.7c5,3.8,8.6,6.6,10.7,8.5c2.1,1.9,5.2,4.7,9.2,8.5c4,3.8,7,7.1,8.9,9.9c1.9,2.8,4.2,6.2,7,10.2
			c2.8,4,4.7,7.8,5.8,11.5c1.1,3.7,2.2,7.7,3.2,12c1,4.3,1.5,8.9,1.5,13.5c0,14-3.1,26.3-9.2,36.7c-6.1,10.5-14.4,18.6-24.9,24.5
			c-10.5,5.9-21.6,10.2-33.6,13c-11.9,2.8-24.4,4.2-37.6,4.2c-14.2,0-28.4-1.7-42.4-5c-14-3.3-27.4-8.4-40.2-15.2
			c-12.8-6.8-23.2-16.1-31.1-28c-7.9-11.9-11.9-25.4-11.9-40.6C61.8,422.7,64.8,410.8,70.8,400.3z"/>
	</g>
</g>
</svg>
